# xmcd
#
# Track frame offsets: 
#        150
#        16107
#        37280
#        63367
#
# Disc length: 1052 seconds
#
# Revision: 1
# Processed by: cddbd v1.5.2PL0 Copyright (c) Steve Scherf et al.
# Submitted via: ExactAudioCopy v1.0b3
#
DISCID=2d041a04
DTITLE=Sugababes - About You Now
DYEAR=2007
DGENRE=Pop
TTITLE0=About You Now
TTITLE1=About You Now (Sticky 'Dirtypop' Remix)
TTITLE2=About You Now (Spencer and Hill Remix)
TTITLE3=In Recline
EXTD=
EXTT0=
EXTT1=
EXTT2=
EXTT3=
PLAYORDER=
